<svg width="1024" height="1024" viewBox="0 0 1024 1024" fill="none" xmlns="http://www.w3.org/2000/svg">
<path d="M1024 1024H0V0H1024V1024ZM268.179 162.796C206.932 162.796 176.308 162.796 152.915 174.716C132.338 185.2 115.608 201.93 105.123 222.507C93.2036 245.9 93.2041 276.524 93.2041 337.771V668.831C93.2041 730.078 93.2036 760.702 105.123 784.095C115.608 804.672 132.338 821.402 152.915 831.887C176.308 843.806 206.932 843.806 268.179 843.806H755.821C817.068 843.806 847.692 843.806 871.085 831.887C891.662 821.402 908.392 804.672 918.877 784.095C930.796 760.702 930.796 730.078 930.796 668.831V337.771C930.796 276.524 930.796 245.9 918.877 222.507C908.392 201.93 891.662 185.2 871.085 174.716C847.692 162.796 817.068 162.796 755.821 162.796H268.179Z" fill="url(#paint0_linear_125_478)" fill-opacity="0.9"/>
<defs>
<linearGradient id="paint0_linear_125_478" x1="512" y1="0" x2="512" y2="1024" gradientUnits="userSpaceOnUse">
<stop stop-color="#E6ECF3"/>
<stop offset="1" stop-color="#D8E0EB"/>
</linearGradient>
</defs>
</svg>
